<mxfile host="app.diagrams.net" modified="2022-08-15T11:47:45.653Z" agent="5.0 (Windows)" etag="2PAsGaXUptzgEkpHjvM4" version="20.2.3" type="github">
  <diagram name="Page-1" id="c7558073-3199-34d8-9f00-42111426c3f3">
    <mxGraphModel dx="2191" dy="830" grid="1" gridSize="10" guides="1" tooltips="1" connect="1" arrows="1" fold="1" page="1" pageScale="1" pageWidth="826" pageHeight="1169" background="none" math="0" shadow="0">
      <root>
        <mxCell id="0" />
        <mxCell id="1" parent="0" />
        <mxCell id="8" value="&lt;p style=&quot;margin: 0px; margin-top: 4px; text-align: center; text-decoration: underline;&quot;&gt;&lt;strong&gt;Этап 1&lt;/strong&gt;&lt;/p&gt;&lt;hr&gt;&lt;p style=&quot;margin: 0px; margin-left: 8px;&quot;&gt;Создание заказа клиента&lt;/p&gt;" style="verticalAlign=middle;align=center;overflow=fill;fontSize=12;fontFamily=Helvetica;html=1;rounded=1;fontStyle=1;strokeWidth=3;fillColor=#E6FFCC;whiteSpace=wrap;" parent="1" vertex="1">
          <mxGeometry x="-797" y="320" width="147" height="90" as="geometry" />
        </mxCell>
        <mxCell id="12" value="Менеджер" style="whiteSpace=wrap;align=center;verticalAlign=middle;fontStyle=1;strokeWidth=3;fillColor=#FFFFCC" parent="1" vertex="1">
          <mxGeometry x="-797" y="160" width="90" height="40" as="geometry" />
        </mxCell>
        <mxCell id="iLyNXibkhxgOzHxXVg3C-126" style="edgeStyle=orthogonalEdgeStyle;rounded=0;orthogonalLoop=1;jettySize=auto;html=1;entryX=0.75;entryY=0;entryDx=0;entryDy=0;" parent="1" source="iLyNXibkhxgOzHxXVg3C-97" target="iLyNXibkhxgOzHxXVg3C-110" edge="1">
          <mxGeometry relative="1" as="geometry">
            <Array as="points">
              <mxPoint x="800" y="270" />
              <mxPoint x="800" y="270" />
            </Array>
          </mxGeometry>
        </mxCell>
        <mxCell id="iLyNXibkhxgOzHxXVg3C-128" style="edgeStyle=orthogonalEdgeStyle;rounded=0;orthogonalLoop=1;jettySize=auto;html=1;strokeWidth=1;entryX=0.808;entryY=-0.012;entryDx=0;entryDy=0;entryPerimeter=0;exitX=0.724;exitY=0.992;exitDx=0;exitDy=0;exitPerimeter=0;shadow=0;" parent="1" source="iLyNXibkhxgOzHxXVg3C-97" target="iLyNXibkhxgOzHxXVg3C-109" edge="1">
          <mxGeometry relative="1" as="geometry">
            <Array as="points">
              <mxPoint x="558" y="70" />
              <mxPoint x="599" y="70" />
            </Array>
            <mxPoint x="620" y="220" as="targetPoint" />
          </mxGeometry>
        </mxCell>
        <mxCell id="gDf4PboOrb0UgYzDx0ND-14" style="edgeStyle=orthogonalEdgeStyle;rounded=0;orthogonalLoop=1;jettySize=auto;html=1;entryX=0.75;entryY=0;entryDx=0;entryDy=0;" parent="1" source="iLyNXibkhxgOzHxXVg3C-97" target="gDf4PboOrb0UgYzDx0ND-12" edge="1">
          <mxGeometry relative="1" as="geometry">
            <mxPoint x="150" y="318" as="targetPoint" />
            <Array as="points">
              <mxPoint x="190" y="270" />
              <mxPoint x="150" y="270" />
            </Array>
          </mxGeometry>
        </mxCell>
        <mxCell id="gDf4PboOrb0UgYzDx0ND-22" style="edgeStyle=orthogonalEdgeStyle;rounded=0;orthogonalLoop=1;jettySize=auto;html=1;entryX=0.75;entryY=0;entryDx=0;entryDy=0;endArrow=classic;endFill=1;strokeWidth=1;" parent="1" source="iLyNXibkhxgOzHxXVg3C-97" target="gDf4PboOrb0UgYzDx0ND-18" edge="1">
          <mxGeometry relative="1" as="geometry">
            <Array as="points">
              <mxPoint x="1030" y="120" />
              <mxPoint x="1030" y="120" />
            </Array>
          </mxGeometry>
        </mxCell>
        <mxCell id="iLyNXibkhxgOzHxXVg3C-97" value="ERP" style="shape=cube;whiteSpace=wrap;html=1;boundedLbl=1;backgroundOutline=1;darkOpacity=0.05;darkOpacity2=0.1;size=10;fillColor=#dae8fc;strokeColor=#6c8ebf;" parent="1" vertex="1">
          <mxGeometry x="-786.5" y="10" width="1856.5" height="50" as="geometry" />
        </mxCell>
        <mxCell id="iLyNXibkhxgOzHxXVg3C-98" value="Logis" style="shape=cube;whiteSpace=wrap;html=1;boundedLbl=1;backgroundOutline=1;darkOpacity=0.05;darkOpacity2=0.1;size=10;fillColor=#dae8fc;strokeColor=#6c8ebf;" parent="1" vertex="1">
          <mxGeometry x="-660" y="80" width="107" height="50" as="geometry" />
        </mxCell>
        <mxCell id="iLyNXibkhxgOzHxXVg3C-99" value="???" style="shape=cube;whiteSpace=wrap;html=1;boundedLbl=1;backgroundOutline=1;darkOpacity=0.05;darkOpacity2=0.1;size=10;fillColor=#dae8fc;strokeColor=#6c8ebf;" parent="1" vertex="1">
          <mxGeometry x="-537" y="80" width="107" height="50" as="geometry" />
        </mxCell>
        <mxCell id="iLyNXibkhxgOzHxXVg3C-123" style="edgeStyle=orthogonalEdgeStyle;rounded=0;orthogonalLoop=1;jettySize=auto;html=1;entryX=0.707;entryY=-0.033;entryDx=0;entryDy=0;entryPerimeter=0;" parent="1" source="iLyNXibkhxgOzHxXVg3C-100" target="iLyNXibkhxgOzHxXVg3C-108" edge="1">
          <mxGeometry relative="1" as="geometry">
            <mxPoint x="158" y="320" as="targetPoint" />
            <Array as="points">
              <mxPoint x="404" y="220" />
              <mxPoint x="354" y="220" />
            </Array>
          </mxGeometry>
        </mxCell>
        <mxCell id="iLyNXibkhxgOzHxXVg3C-100" value="АИС" style="shape=cube;whiteSpace=wrap;html=1;boundedLbl=1;backgroundOutline=1;darkOpacity=0.05;darkOpacity2=0.1;size=10;fillColor=#dae8fc;strokeColor=#6c8ebf;" parent="1" vertex="1">
          <mxGeometry x="350" y="80" width="107" height="50" as="geometry" />
        </mxCell>
        <mxCell id="iLyNXibkhxgOzHxXVg3C-102" value="Сотрудник ПДО" style="whiteSpace=wrap;align=center;verticalAlign=middle;fontStyle=1;strokeWidth=3;fillColor=#FFFFCC" parent="1" vertex="1">
          <mxGeometry x="-270" y="160" width="90" height="40" as="geometry" />
        </mxCell>
        <mxCell id="iLyNXibkhxgOzHxXVg3C-120" style="edgeStyle=orthogonalEdgeStyle;rounded=0;orthogonalLoop=1;jettySize=auto;html=1;strokeWidth=1;entryX=0.612;entryY=0;entryDx=0;entryDy=0;entryPerimeter=0;shadow=0;" parent="1" source="iLyNXibkhxgOzHxXVg3C-103" target="iLyNXibkhxgOzHxXVg3C-109" edge="1">
          <mxGeometry relative="1" as="geometry">
            <Array as="points">
              <mxPoint x="30" y="250" />
              <mxPoint x="570" y="250" />
            </Array>
            <mxPoint x="540" y="320" as="targetPoint" />
          </mxGeometry>
        </mxCell>
        <mxCell id="iLyNXibkhxgOzHxXVg3C-121" style="edgeStyle=orthogonalEdgeStyle;rounded=0;orthogonalLoop=1;jettySize=auto;html=1;exitX=0.75;exitY=1;exitDx=0;exitDy=0;entryX=0.34;entryY=0;entryDx=0;entryDy=0;entryPerimeter=0;" parent="1" source="iLyNXibkhxgOzHxXVg3C-103" target="iLyNXibkhxgOzHxXVg3C-110" edge="1">
          <mxGeometry relative="1" as="geometry">
            <mxPoint x="540" y="300" as="targetPoint" />
            <Array as="points">
              <mxPoint x="95" y="240" />
              <mxPoint x="740" y="240" />
            </Array>
          </mxGeometry>
        </mxCell>
        <mxCell id="iLyNXibkhxgOzHxXVg3C-103" value="Интеграция" style="whiteSpace=wrap;align=center;verticalAlign=middle;fontStyle=1;strokeWidth=3;fillColor=#d5e8d4;strokeColor=#82b366;" parent="1" vertex="1">
          <mxGeometry x="-100" y="160" width="260" height="40" as="geometry" />
        </mxCell>
        <mxCell id="iLyNXibkhxgOzHxXVg3C-119" style="edgeStyle=orthogonalEdgeStyle;rounded=0;orthogonalLoop=1;jettySize=auto;html=1;" parent="1" source="iLyNXibkhxgOzHxXVg3C-104" target="iLyNXibkhxgOzHxXVg3C-108" edge="1">
          <mxGeometry relative="1" as="geometry">
            <Array as="points">
              <mxPoint x="270" y="220" />
              <mxPoint x="330" y="220" />
            </Array>
          </mxGeometry>
        </mxCell>
        <mxCell id="iLyNXibkhxgOzHxXVg3C-104" value="Рабочий" style="whiteSpace=wrap;align=center;verticalAlign=middle;fontStyle=1;strokeWidth=3;fillColor=#FFFFCC" parent="1" vertex="1">
          <mxGeometry x="220" y="160" width="90" height="40" as="geometry" />
        </mxCell>
        <mxCell id="iLyNXibkhxgOzHxXVg3C-105" value="&lt;p style=&quot;margin: 0px; margin-top: 4px; text-align: center; text-decoration: underline;&quot;&gt;&lt;strong&gt;Этап 2&lt;/strong&gt;&lt;/p&gt;&lt;hr&gt;&lt;p style=&quot;margin: 0px; margin-left: 8px;&quot;&gt;Планирование производственных заказов&lt;/p&gt;" style="verticalAlign=middle;align=center;overflow=fill;fontSize=12;fontFamily=Helvetica;html=1;rounded=1;fontStyle=1;strokeWidth=3;fillColor=#E6FFCC;whiteSpace=wrap;" parent="1" vertex="1">
          <mxGeometry x="-600" y="320" width="147" height="90" as="geometry" />
        </mxCell>
        <mxCell id="iLyNXibkhxgOzHxXVg3C-106" value="&lt;p style=&quot;margin: 0px; margin-top: 4px; text-align: center; text-decoration: underline;&quot;&gt;&lt;strong&gt;Этап 3&lt;/strong&gt;&lt;/p&gt;&lt;hr&gt;&lt;p style=&quot;margin: 0px; margin-left: 8px;&quot;&gt;Создание сопроводительного паспорта&lt;/p&gt;" style="verticalAlign=middle;align=center;overflow=fill;fontSize=12;fontFamily=Helvetica;html=1;rounded=1;fontStyle=1;strokeWidth=3;fillColor=#E6FFCC;whiteSpace=wrap;" parent="1" vertex="1">
          <mxGeometry x="-386.5" y="320" width="147" height="90" as="geometry" />
        </mxCell>
        <mxCell id="iLyNXibkhxgOzHxXVg3C-158" style="edgeStyle=orthogonalEdgeStyle;rounded=0;orthogonalLoop=1;jettySize=auto;html=1;entryX=0.225;entryY=0;entryDx=0;entryDy=0;exitX=0.335;exitY=1.002;exitDx=0;exitDy=0;exitPerimeter=0;entryPerimeter=0;strokeWidth=1;shadow=0;" parent="1" source="gDf4PboOrb0UgYzDx0ND-12" target="iLyNXibkhxgOzHxXVg3C-134" edge="1">
          <mxGeometry relative="1" as="geometry">
            <mxPoint x="-130" y="820" as="targetPoint" />
            <Array as="points">
              <mxPoint x="70" y="410" />
            </Array>
          </mxGeometry>
        </mxCell>
        <mxCell id="iLyNXibkhxgOzHxXVg3C-107" value="&lt;p style=&quot;margin: 0px; margin-top: 4px; text-align: center; text-decoration: underline;&quot;&gt;&lt;strong&gt;Этап 4&lt;/strong&gt;&lt;/p&gt;&lt;hr&gt;&lt;p style=&quot;margin: 0px; margin-left: 8px;&quot;&gt;Создание заказа на производство&lt;/p&gt;" style="verticalAlign=middle;align=center;overflow=fill;fontSize=12;fontFamily=Helvetica;html=1;rounded=1;fontStyle=1;strokeWidth=3;fillColor=#E6FFCC;whiteSpace=wrap;" parent="1" vertex="1">
          <mxGeometry x="-157" y="320" width="147" height="90" as="geometry" />
        </mxCell>
        <mxCell id="iLyNXibkhxgOzHxXVg3C-148" style="edgeStyle=orthogonalEdgeStyle;rounded=0;orthogonalLoop=1;jettySize=auto;html=1;entryX=0.147;entryY=0.02;entryDx=0;entryDy=0;entryPerimeter=0;strokeWidth=1;shadow=0;sketch=0;" parent="1" source="iLyNXibkhxgOzHxXVg3C-108" target="iLyNXibkhxgOzHxXVg3C-135" edge="1">
          <mxGeometry relative="1" as="geometry">
            <Array as="points">
              <mxPoint x="300" y="520" />
              <mxPoint x="282" y="520" />
            </Array>
          </mxGeometry>
        </mxCell>
        <mxCell id="iLyNXibkhxgOzHxXVg3C-108" value="&lt;p style=&quot;margin: 0px; margin-top: 4px; text-align: center; text-decoration: underline;&quot;&gt;&lt;strong&gt;Этап 6&lt;/strong&gt;&lt;/p&gt;&lt;hr&gt;&lt;p style=&quot;margin: 0px; margin-left: 8px;&quot;&gt;Фиксирование выполнения операций&lt;/p&gt;" style="verticalAlign=middle;align=center;overflow=fill;fontSize=12;fontFamily=Helvetica;html=1;rounded=1;fontStyle=1;strokeWidth=3;fillColor=#E6FFCC;whiteSpace=wrap;" parent="1" vertex="1">
          <mxGeometry x="250" y="320" width="147" height="90" as="geometry" />
        </mxCell>
        <mxCell id="iLyNXibkhxgOzHxXVg3C-151" style="edgeStyle=orthogonalEdgeStyle;rounded=0;orthogonalLoop=1;jettySize=auto;html=1;entryX=0.14;entryY=0.04;entryDx=0;entryDy=0;entryPerimeter=0;" parent="1" source="iLyNXibkhxgOzHxXVg3C-109" target="iLyNXibkhxgOzHxXVg3C-136" edge="1">
          <mxGeometry relative="1" as="geometry">
            <Array as="points">
              <mxPoint x="530" y="520" />
              <mxPoint x="510" y="520" />
            </Array>
          </mxGeometry>
        </mxCell>
        <mxCell id="iLyNXibkhxgOzHxXVg3C-109" value="&lt;p style=&quot;margin: 0px; margin-top: 4px; text-align: center; text-decoration: underline;&quot;&gt;&lt;strong&gt;Этап 7&lt;/strong&gt;&lt;/p&gt;&lt;hr&gt;&lt;p style=&quot;margin: 0px; margin-left: 8px;&quot;&gt;Заполнение трудозатрат&lt;/p&gt;" style="verticalAlign=middle;align=center;overflow=fill;fontSize=12;fontFamily=Helvetica;html=1;rounded=1;fontStyle=1;strokeWidth=3;fillColor=#E6FFCC;whiteSpace=wrap;shadow=0;" parent="1" vertex="1">
          <mxGeometry x="480" y="320" width="147" height="90" as="geometry" />
        </mxCell>
        <mxCell id="iLyNXibkhxgOzHxXVg3C-155" style="edgeStyle=orthogonalEdgeStyle;rounded=0;orthogonalLoop=1;jettySize=auto;html=1;" parent="1" source="iLyNXibkhxgOzHxXVg3C-110" target="iLyNXibkhxgOzHxXVg3C-137" edge="1">
          <mxGeometry relative="1" as="geometry">
            <Array as="points">
              <mxPoint x="750" y="550" />
              <mxPoint x="750" y="550" />
            </Array>
          </mxGeometry>
        </mxCell>
        <mxCell id="iLyNXibkhxgOzHxXVg3C-110" value="&lt;p style=&quot;margin: 0px; margin-top: 4px; text-align: center; text-decoration: underline;&quot;&gt;&lt;strong&gt;Этап 8&lt;/strong&gt;&lt;/p&gt;&lt;hr&gt;&lt;p style=&quot;margin: 0px; margin-left: 8px;&quot;&gt;Выпуск продукции&lt;/p&gt;" style="verticalAlign=middle;align=center;overflow=fill;fontSize=12;fontFamily=Helvetica;html=1;rounded=1;fontStyle=1;strokeWidth=3;fillColor=#E6FFCC;whiteSpace=wrap;" parent="1" vertex="1">
          <mxGeometry x="690" y="320" width="147" height="90" as="geometry" />
        </mxCell>
        <mxCell id="iLyNXibkhxgOzHxXVg3C-129" value="1&lt;span style=&quot;white-space: pre;&quot;&gt;	&lt;/span&gt;&amp;nbsp;Заказ клиента" style="html=1;dashed=0;whitespace=wrap;shape=mxgraph.dfd.dataStoreID;align=left;spacingLeft=3;points=[[0,0],[0.5,0],[1,0],[0,0.5],[1,0.5],[0,1],[0.5,1],[1,1]];fillColor=#fff2cc;strokeColor=#d6b656;" parent="1" vertex="1">
          <mxGeometry x="-786.5" y="630" width="137" height="50" as="geometry" />
        </mxCell>
        <mxCell id="iLyNXibkhxgOzHxXVg3C-130" value="2&lt;span style=&quot;white-space: pre;&quot;&gt;	&lt;/span&gt;&amp;nbsp;Производственный &lt;span style=&quot;white-space: pre;&quot;&gt;	&lt;/span&gt;&amp;nbsp;заказ" style="html=1;dashed=0;whitespace=wrap;shape=mxgraph.dfd.dataStoreID;align=left;spacingLeft=3;points=[[0,0],[0.5,0],[1,0],[0,0.5],[1,0.5],[0,1],[0.5,1],[1,1]];whiteSpace=wrap;fillColor=#fff2cc;strokeColor=#d6b656;" parent="1" vertex="1">
          <mxGeometry x="-589.5" y="630" width="150" height="50" as="geometry" />
        </mxCell>
        <mxCell id="iLyNXibkhxgOzHxXVg3C-143" style="edgeStyle=orthogonalEdgeStyle;rounded=0;orthogonalLoop=1;jettySize=auto;html=1;entryX=0.299;entryY=0;entryDx=0;entryDy=0;entryPerimeter=0;" parent="1" source="iLyNXibkhxgOzHxXVg3C-131" target="iLyNXibkhxgOzHxXVg3C-108" edge="1">
          <mxGeometry relative="1" as="geometry">
            <mxPoint x="250" y="300" as="targetPoint" />
            <Array as="points">
              <mxPoint x="-350" y="810" />
              <mxPoint x="210" y="810" />
              <mxPoint x="210" y="270" />
              <mxPoint x="294" y="270" />
            </Array>
          </mxGeometry>
        </mxCell>
        <mxCell id="iLyNXibkhxgOzHxXVg3C-131" value="3&lt;span style=&quot;white-space: pre;&quot;&gt;	&lt;/span&gt;&amp;nbsp;Сопроводительный &lt;span style=&quot;white-space: pre;&quot;&gt;	&lt;/span&gt;&amp;nbsp;паспорт" style="html=1;dashed=0;whitespace=wrap;shape=mxgraph.dfd.dataStoreID;align=left;spacingLeft=3;points=[[0,0],[0.5,0],[1,0],[0,0.5],[1,0.5],[0,1],[0.5,1],[1,1]];whiteSpace=wrap;fillColor=#fff2cc;strokeColor=#d6b656;" parent="1" vertex="1">
          <mxGeometry x="-389.5" y="630" width="150" height="50" as="geometry" />
        </mxCell>
        <mxCell id="iLyNXibkhxgOzHxXVg3C-132" value="4&lt;span style=&quot;white-space: pre;&quot;&gt;	&lt;/span&gt;&amp;nbsp;Паспорт&amp;nbsp;&lt;span style=&quot;white-space: pre;&quot;&gt;	&lt;/span&gt;&amp;nbsp;&lt;br&gt;&lt;span style=&quot;white-space: pre;&quot;&gt;	&lt;/span&gt;&amp;nbsp;ERP" style="html=1;dashed=0;whitespace=wrap;shape=mxgraph.dfd.dataStoreID;align=left;spacingLeft=3;points=[[0,0],[0.5,0],[1,0],[0,0.5],[1,0.5],[0,1],[0.5,1],[1,1]];whiteSpace=wrap;fillColor=#fff2cc;strokeColor=#d6b656;" parent="1" vertex="1">
          <mxGeometry x="-130" y="730" width="130" height="50" as="geometry" />
        </mxCell>
        <mxCell id="gDf4PboOrb0UgYzDx0ND-13" style="edgeStyle=orthogonalEdgeStyle;rounded=0;orthogonalLoop=1;jettySize=auto;html=1;entryX=0.25;entryY=0;entryDx=0;entryDy=0;exitX=1;exitY=0.5;exitDx=0;exitDy=0;" parent="1" source="iLyNXibkhxgOzHxXVg3C-133" target="gDf4PboOrb0UgYzDx0ND-12" edge="1">
          <mxGeometry relative="1" as="geometry">
            <mxPoint y="730" as="sourcePoint" />
            <Array as="points">
              <mxPoint x="20" y="655" />
              <mxPoint x="20" y="270" />
              <mxPoint x="77" y="270" />
            </Array>
          </mxGeometry>
        </mxCell>
        <mxCell id="iLyNXibkhxgOzHxXVg3C-133" value="5&lt;span style=&quot;white-space: pre;&quot;&gt;	&lt;/span&gt;&amp;nbsp;Заказ на &lt;span style=&quot;white-space: pre;&quot;&gt;	&lt;/span&gt;&amp;nbsp;производство" style="html=1;dashed=0;whitespace=wrap;shape=mxgraph.dfd.dataStoreID;align=left;spacingLeft=3;points=[[0,0],[0.5,0],[1,0],[0,0.5],[1,0.5],[0,1],[0.5,1],[1,1]];whiteSpace=wrap;fillColor=#fff2cc;strokeColor=#d6b656;" parent="1" vertex="1">
          <mxGeometry x="-130" y="630" width="130" height="50" as="geometry" />
        </mxCell>
        <mxCell id="iLyNXibkhxgOzHxXVg3C-150" style="edgeStyle=orthogonalEdgeStyle;rounded=0;orthogonalLoop=1;jettySize=auto;html=1;exitX=1;exitY=0.5;exitDx=0;exitDy=0;strokeWidth=1;entryX=0.136;entryY=0;entryDx=0;entryDy=0;entryPerimeter=0;shadow=0;" parent="1" source="iLyNXibkhxgOzHxXVg3C-134" target="iLyNXibkhxgOzHxXVg3C-109" edge="1">
          <mxGeometry relative="1" as="geometry">
            <mxPoint x="490" y="300" as="targetPoint" />
            <Array as="points">
              <mxPoint x="240" y="655" />
              <mxPoint x="240" y="810" />
              <mxPoint x="460" y="810" />
              <mxPoint x="460" y="280" />
              <mxPoint x="500" y="280" />
            </Array>
          </mxGeometry>
        </mxCell>
        <mxCell id="iLyNXibkhxgOzHxXVg3C-134" value="6&lt;span style=&quot;white-space: pre;&quot;&gt;	&lt;/span&gt;&amp;nbsp;Этап&lt;br&gt;&lt;span style=&quot;white-space: pre;&quot;&gt;	&lt;/span&gt;&amp;nbsp;производства" style="html=1;dashed=0;whitespace=wrap;shape=mxgraph.dfd.dataStoreID;align=left;spacingLeft=3;points=[[0,0],[0.5,0],[1,0],[0,0.5],[1,0.5],[0,1],[0.5,1],[1,1]];whiteSpace=wrap;fillColor=#fff2cc;strokeColor=#d6b656;" parent="1" vertex="1">
          <mxGeometry x="40" y="630" width="133" height="50" as="geometry" />
        </mxCell>
        <mxCell id="iLyNXibkhxgOzHxXVg3C-149" style="edgeStyle=orthogonalEdgeStyle;rounded=0;orthogonalLoop=1;jettySize=auto;html=1;strokeWidth=1;entryX=0.272;entryY=0;entryDx=0;entryDy=0;entryPerimeter=0;shadow=0;" parent="1" source="iLyNXibkhxgOzHxXVg3C-135" target="iLyNXibkhxgOzHxXVg3C-109" edge="1">
          <mxGeometry relative="1" as="geometry">
            <mxPoint x="530" y="300" as="targetPoint" />
            <Array as="points">
              <mxPoint x="440" y="655" />
              <mxPoint x="440" y="270" />
              <mxPoint x="520" y="270" />
            </Array>
          </mxGeometry>
        </mxCell>
        <mxCell id="iLyNXibkhxgOzHxXVg3C-135" value="7&lt;span style=&quot;white-space: pre;&quot;&gt;	&lt;/span&gt;&amp;nbsp;Производственная&lt;br&gt;&amp;nbsp;&lt;span style=&quot;white-space: pre;&quot;&gt;	&lt;/span&gt;&amp;nbsp;операция MES" style="html=1;dashed=0;whitespace=wrap;shape=mxgraph.dfd.dataStoreID;align=left;spacingLeft=3;points=[[0,0],[0.5,0],[1,0],[0,0.5],[1,0.5],[0,1],[0.5,1],[1,1]];whiteSpace=wrap;fillColor=#fff2cc;strokeColor=#d6b656;" parent="1" vertex="1">
          <mxGeometry x="260.5" y="630" width="150" height="50" as="geometry" />
        </mxCell>
        <mxCell id="iLyNXibkhxgOzHxXVg3C-154" style="edgeStyle=orthogonalEdgeStyle;rounded=0;orthogonalLoop=1;jettySize=auto;html=1;entryX=0.204;entryY=0;entryDx=0;entryDy=0;entryPerimeter=0;" parent="1" source="iLyNXibkhxgOzHxXVg3C-136" target="iLyNXibkhxgOzHxXVg3C-110" edge="1">
          <mxGeometry relative="1" as="geometry">
            <mxPoint x="554" y="300" as="targetPoint" />
            <Array as="points">
              <mxPoint x="670" y="640" />
              <mxPoint x="670" y="280" />
              <mxPoint x="720" y="280" />
            </Array>
          </mxGeometry>
        </mxCell>
        <mxCell id="gDf4PboOrb0UgYzDx0ND-23" style="edgeStyle=orthogonalEdgeStyle;rounded=0;orthogonalLoop=1;jettySize=auto;html=1;entryX=0.25;entryY=0;entryDx=0;entryDy=0;endArrow=classic;endFill=1;strokeWidth=1;" parent="1" source="iLyNXibkhxgOzHxXVg3C-136" target="gDf4PboOrb0UgYzDx0ND-18" edge="1">
          <mxGeometry relative="1" as="geometry">
            <Array as="points">
              <mxPoint x="610" y="800" />
              <mxPoint x="900" y="800" />
              <mxPoint x="900" y="280" />
              <mxPoint x="957" y="280" />
            </Array>
          </mxGeometry>
        </mxCell>
        <mxCell id="iLyNXibkhxgOzHxXVg3C-136" value="8&lt;span style=&quot;white-space: pre;&quot;&gt;	&lt;/span&gt;&amp;nbsp;Этап&amp;nbsp;&lt;br&gt;&lt;span style=&quot;white-space: pre;&quot;&gt;	&lt;/span&gt;&amp;nbsp;Заполненный" style="html=1;dashed=0;whitespace=wrap;shape=mxgraph.dfd.dataStoreID;align=left;spacingLeft=3;points=[[0,0],[0.5,0],[1,0],[0,0.5],[1,0.5],[0,1],[0.5,1],[1,1]];whiteSpace=wrap;fillColor=#fff2cc;strokeColor=#d6b656;" parent="1" vertex="1">
          <mxGeometry x="489" y="630" width="150" height="50" as="geometry" />
        </mxCell>
        <mxCell id="iLyNXibkhxgOzHxXVg3C-137" value="9&lt;span style=&quot;white-space: pre;&quot;&gt;	&lt;/span&gt;&amp;nbsp;Передача &lt;span style=&quot;white-space: pre;&quot;&gt;	&lt;/span&gt;&amp;nbsp;продукции из &lt;span style=&quot;white-space: pre;&quot;&gt;	&lt;/span&gt;&amp;nbsp;производства" style="html=1;dashed=0;whitespace=wrap;shape=mxgraph.dfd.dataStoreID;align=left;spacingLeft=3;points=[[0,0],[0.5,0],[1,0],[0,0.5],[1,0.5],[0,1],[0.5,1],[1,1]];whiteSpace=wrap;fillColor=#fff2cc;strokeColor=#d6b656;" parent="1" vertex="1">
          <mxGeometry x="690" y="630" width="150" height="50" as="geometry" />
        </mxCell>
        <mxCell id="iLyNXibkhxgOzHxXVg3C-168" style="rounded=0;orthogonalLoop=1;jettySize=auto;html=1;exitX=0;exitY=0;exitDx=0;exitDy=65;exitPerimeter=0;elbow=vertical;endArrow=none;endFill=0;dashed=1;" parent="1" source="iLyNXibkhxgOzHxXVg3C-159" edge="1">
          <mxGeometry relative="1" as="geometry">
            <mxPoint x="-360" y="525" as="targetPoint" />
          </mxGeometry>
        </mxCell>
        <mxCell id="iLyNXibkhxgOzHxXVg3C-159" value="Плавка&lt;br&gt;Партия&lt;br&gt;id паспорта&lt;br&gt;ТЭК&lt;br&gt;КЗ" style="shape=card;whiteSpace=wrap;html=1;" parent="1" vertex="1">
          <mxGeometry x="-330" y="470" width="80" height="100" as="geometry" />
        </mxCell>
        <mxCell id="iLyNXibkhxgOzHxXVg3C-167" style="rounded=0;orthogonalLoop=1;jettySize=auto;html=1;exitX=0;exitY=0;exitDx=0;exitDy=50;exitPerimeter=0;elbow=vertical;endArrow=none;endFill=0;dashed=1;" parent="1" source="iLyNXibkhxgOzHxXVg3C-160" edge="1">
          <mxGeometry relative="1" as="geometry">
            <mxPoint x="-580" y="500" as="targetPoint" />
          </mxGeometry>
        </mxCell>
        <mxCell id="iLyNXibkhxgOzHxXVg3C-160" value="ТЭК&lt;br&gt;КЗ" style="shape=card;whiteSpace=wrap;html=1;" parent="1" vertex="1">
          <mxGeometry x="-553" y="470" width="70" height="70" as="geometry" />
        </mxCell>
        <mxCell id="iLyNXibkhxgOzHxXVg3C-166" style="rounded=0;orthogonalLoop=1;jettySize=auto;html=1;exitX=0;exitY=0;exitDx=0;exitDy=60;exitPerimeter=0;elbow=vertical;endArrow=none;endFill=0;dashed=1;" parent="1" source="iLyNXibkhxgOzHxXVg3C-161" edge="1">
          <mxGeometry relative="1" as="geometry">
            <mxPoint x="-770" y="510" as="targetPoint" />
          </mxGeometry>
        </mxCell>
        <mxCell id="iLyNXibkhxgOzHxXVg3C-161" value="Параметры изделия" style="shape=card;whiteSpace=wrap;html=1;" parent="1" vertex="1">
          <mxGeometry x="-753" y="470" width="70" height="90" as="geometry" />
        </mxCell>
        <mxCell id="iLyNXibkhxgOzHxXVg3C-172" style="rounded=0;orthogonalLoop=1;jettySize=auto;html=1;elbow=vertical;dashed=1;endArrow=none;endFill=0;" parent="1" source="iLyNXibkhxgOzHxXVg3C-170" edge="1">
          <mxGeometry relative="1" as="geometry">
            <mxPoint x="-210" y="660" as="targetPoint" />
          </mxGeometry>
        </mxCell>
        <mxCell id="iLyNXibkhxgOzHxXVg3C-170" value="Плавка&lt;br&gt;Партия&lt;br&gt;id паспорта&lt;br&gt;id заготовки&lt;br&gt;ТЭК&lt;br&gt;Трудозатраты" style="shape=card;whiteSpace=wrap;html=1;" parent="1" vertex="1">
          <mxGeometry x="-280" y="700" width="80" height="100" as="geometry" />
        </mxCell>
        <mxCell id="iLyNXibkhxgOzHxXVg3C-174" style="edgeStyle=none;rounded=0;orthogonalLoop=1;jettySize=auto;html=1;dashed=1;endArrow=none;endFill=0;elbow=vertical;" parent="1" source="iLyNXibkhxgOzHxXVg3C-173" edge="1">
          <mxGeometry relative="1" as="geometry">
            <mxPoint x="-150" y="500" as="targetPoint" />
          </mxGeometry>
        </mxCell>
        <mxCell id="iLyNXibkhxgOzHxXVg3C-173" value="Плавка&lt;br&gt;Партия&lt;br&gt;Номенклатура&lt;br&gt;" style="shape=card;whiteSpace=wrap;html=1;" parent="1" vertex="1">
          <mxGeometry x="-123.5" y="470" width="80" height="90" as="geometry" />
        </mxCell>
        <mxCell id="iLyNXibkhxgOzHxXVg3C-176" style="edgeStyle=none;rounded=0;orthogonalLoop=1;jettySize=auto;html=1;dashed=1;endArrow=none;endFill=0;elbow=vertical;" parent="1" source="iLyNXibkhxgOzHxXVg3C-175" edge="1">
          <mxGeometry relative="1" as="geometry">
            <mxPoint x="280" y="534.9999999999998" as="targetPoint" />
          </mxGeometry>
        </mxCell>
        <mxCell id="iLyNXibkhxgOzHxXVg3C-175" value="Плавка&lt;br&gt;Партия&lt;br&gt;id паспорта&lt;br&gt;id заготовки&lt;br&gt;№ Операции MES" style="shape=card;whiteSpace=wrap;html=1;" parent="1" vertex="1">
          <mxGeometry x="333" y="470" width="80" height="100" as="geometry" />
        </mxCell>
        <mxCell id="iLyNXibkhxgOzHxXVg3C-178" style="edgeStyle=none;rounded=0;orthogonalLoop=1;jettySize=auto;html=1;dashed=1;endArrow=none;endFill=0;elbow=vertical;" parent="1" source="iLyNXibkhxgOzHxXVg3C-177" edge="1">
          <mxGeometry relative="1" as="geometry">
            <mxPoint x="430" y="660" as="targetPoint" />
          </mxGeometry>
        </mxCell>
        <mxCell id="iLyNXibkhxgOzHxXVg3C-177" value="Партия&lt;br&gt;id паспорта&lt;br&gt;id заготовки&lt;br&gt;трудозатраты&lt;br&gt;№ Операции MES" style="shape=card;whiteSpace=wrap;html=1;" parent="1" vertex="1">
          <mxGeometry x="363.5" y="700" width="80" height="100" as="geometry" />
        </mxCell>
        <mxCell id="iLyNXibkhxgOzHxXVg3C-182" style="edgeStyle=none;rounded=0;orthogonalLoop=1;jettySize=auto;html=1;dashed=1;endArrow=none;endFill=0;elbow=vertical;" parent="1" source="iLyNXibkhxgOzHxXVg3C-180" edge="1">
          <mxGeometry relative="1" as="geometry">
            <mxPoint x="510" y="570" as="targetPoint" />
          </mxGeometry>
        </mxCell>
        <mxCell id="iLyNXibkhxgOzHxXVg3C-180" value="&lt;br&gt;id заготовки&lt;br&gt;трудозатраты&lt;br&gt;Статья трудозатрат" style="shape=card;whiteSpace=wrap;html=1;" parent="1" vertex="1">
          <mxGeometry x="547" y="470" width="80" height="100" as="geometry" />
        </mxCell>
        <mxCell id="iLyNXibkhxgOzHxXVg3C-185" style="edgeStyle=none;rounded=0;orthogonalLoop=1;jettySize=auto;html=1;dashed=1;endArrow=none;endFill=0;elbow=vertical;" parent="1" source="iLyNXibkhxgOzHxXVg3C-181" edge="1">
          <mxGeometry relative="1" as="geometry">
            <mxPoint x="750" y="500" as="targetPoint" />
          </mxGeometry>
        </mxCell>
        <mxCell id="iLyNXibkhxgOzHxXVg3C-181" value="Параметры изделия" style="shape=card;whiteSpace=wrap;html=1;" parent="1" vertex="1">
          <mxGeometry x="790" y="470" width="80" height="100" as="geometry" />
        </mxCell>
        <mxCell id="gDf4PboOrb0UgYzDx0ND-12" value="&lt;p style=&quot;margin: 0px; margin-top: 4px; text-align: center; text-decoration: underline;&quot;&gt;&lt;strong&gt;Этап 5&lt;/strong&gt;&lt;/p&gt;&lt;hr&gt;&lt;p style=&quot;margin: 0px; margin-left: 8px;&quot;&gt;Создание этапа производства&lt;/p&gt;" style="verticalAlign=middle;align=center;overflow=fill;fontSize=12;fontFamily=Helvetica;html=1;rounded=1;fontStyle=1;strokeWidth=3;fillColor=#E6FFCC;whiteSpace=wrap;" parent="1" vertex="1">
          <mxGeometry x="40" y="320" width="147" height="90" as="geometry" />
        </mxCell>
        <mxCell id="gDf4PboOrb0UgYzDx0ND-16" style="edgeStyle=orthogonalEdgeStyle;rounded=0;orthogonalLoop=1;jettySize=auto;html=1;strokeWidth=1;dashed=1;endArrow=none;endFill=0;" parent="1" source="gDf4PboOrb0UgYzDx0ND-15" edge="1">
          <mxGeometry relative="1" as="geometry">
            <mxPoint x="70" y="490" as="targetPoint" />
          </mxGeometry>
        </mxCell>
        <mxCell id="gDf4PboOrb0UgYzDx0ND-15" value="Плавка&lt;br&gt;Партия&lt;br&gt;Номенклатура&lt;br&gt;Входной ПФ" style="shape=card;whiteSpace=wrap;html=1;" parent="1" vertex="1">
          <mxGeometry x="107" y="470" width="80" height="100" as="geometry" />
        </mxCell>
        <mxCell id="gDf4PboOrb0UgYzDx0ND-17" style="edgeStyle=orthogonalEdgeStyle;rounded=0;orthogonalLoop=1;jettySize=auto;html=1;" parent="1" source="gDf4PboOrb0UgYzDx0ND-18" target="gDf4PboOrb0UgYzDx0ND-19" edge="1">
          <mxGeometry relative="1" as="geometry">
            <Array as="points">
              <mxPoint x="980" y="550" />
              <mxPoint x="980" y="550" />
            </Array>
          </mxGeometry>
        </mxCell>
        <mxCell id="gDf4PboOrb0UgYzDx0ND-18" value="&lt;p style=&quot;margin: 0px; margin-top: 4px; text-align: center; text-decoration: underline;&quot;&gt;&lt;strong&gt;Этап 9&lt;/strong&gt;&lt;/p&gt;&lt;hr&gt;&lt;p style=&quot;margin: 0px; margin-left: 8px;&quot;&gt;Списание материалов и ПФ&lt;/p&gt;" style="verticalAlign=middle;align=center;overflow=fill;fontSize=12;fontFamily=Helvetica;html=1;rounded=1;fontStyle=1;strokeWidth=3;fillColor=#E6FFCC;whiteSpace=wrap;" parent="1" vertex="1">
          <mxGeometry x="920" y="320" width="147" height="90" as="geometry" />
        </mxCell>
        <mxCell id="gDf4PboOrb0UgYzDx0ND-19" value="9&lt;span style=&quot;white-space: pre;&quot;&gt;	&lt;/span&gt;&amp;nbsp;Передача &lt;span style=&quot;white-space: pre;&quot;&gt;	&lt;/span&gt;&amp;nbsp;материалов &lt;span style=&quot;white-space: pre;&quot;&gt;	&lt;/span&gt;в&amp;nbsp;производство" style="html=1;dashed=0;whitespace=wrap;shape=mxgraph.dfd.dataStoreID;align=left;spacingLeft=3;points=[[0,0],[0.5,0],[1,0],[0,0.5],[1,0.5],[0,1],[0.5,1],[1,1]];whiteSpace=wrap;fillColor=#fff2cc;strokeColor=#d6b656;" parent="1" vertex="1">
          <mxGeometry x="920" y="630" width="150" height="50" as="geometry" />
        </mxCell>
        <mxCell id="gDf4PboOrb0UgYzDx0ND-20" style="edgeStyle=none;rounded=0;orthogonalLoop=1;jettySize=auto;html=1;dashed=1;endArrow=none;endFill=0;elbow=vertical;" parent="1" source="gDf4PboOrb0UgYzDx0ND-21" edge="1">
          <mxGeometry relative="1" as="geometry">
            <mxPoint x="980" y="500" as="targetPoint" />
          </mxGeometry>
        </mxCell>
        <mxCell id="gDf4PboOrb0UgYzDx0ND-21" value="Партии (серии) материалов и ПФ" style="shape=card;whiteSpace=wrap;html=1;" parent="1" vertex="1">
          <mxGeometry x="1020" y="470" width="80" height="100" as="geometry" />
        </mxCell>
        <mxCell id="gDf4PboOrb0UgYzDx0ND-108" value="1" parent="0" />
        <mxCell id="gDf4PboOrb0UgYzDx0ND-111" value="" style="edgeStyle=orthogonalEdgeStyle;rounded=0;orthogonalLoop=1;jettySize=auto;html=1;strokeWidth=1;exitX=0.178;exitY=1.013;exitDx=0;exitDy=0;exitPerimeter=0;entryX=0.13;entryY=-0.051;entryDx=0;entryDy=0;entryPerimeter=0;" parent="gDf4PboOrb0UgYzDx0ND-108" source="8" target="iLyNXibkhxgOzHxXVg3C-129" edge="1">
          <mxGeometry relative="1" as="geometry">
            <Array as="points">
              <mxPoint x="-771" y="470" />
              <mxPoint x="-770" y="470" />
              <mxPoint x="-770" y="627" />
            </Array>
            <mxPoint x="-770" y="440" as="sourcePoint" />
            <mxPoint x="-770" y="600" as="targetPoint" />
          </mxGeometry>
        </mxCell>
        <mxCell id="gDf4PboOrb0UgYzDx0ND-112" style="edgeStyle=orthogonalEdgeStyle;rounded=0;orthogonalLoop=1;jettySize=auto;html=1;strokeWidth=1;exitX=0.25;exitY=1;exitDx=0;exitDy=0;" parent="gDf4PboOrb0UgYzDx0ND-108" source="12" edge="1">
          <mxGeometry relative="1" as="geometry">
            <mxPoint x="-760" y="320" as="targetPoint" />
            <mxPoint x="-770" y="210" as="sourcePoint" />
            <Array as="points">
              <mxPoint x="-774" y="260" />
              <mxPoint x="-760" y="260" />
            </Array>
          </mxGeometry>
        </mxCell>
        <mxCell id="gDf4PboOrb0UgYzDx0ND-113" style="edgeStyle=orthogonalEdgeStyle;rounded=0;orthogonalLoop=1;jettySize=auto;html=1;entryX=0.75;entryY=0;entryDx=0;entryDy=0;strokeWidth=1;exitX=0.029;exitY=1.045;exitDx=0;exitDy=0;exitPerimeter=0;" parent="gDf4PboOrb0UgYzDx0ND-108" source="iLyNXibkhxgOzHxXVg3C-97" edge="1">
          <mxGeometry relative="1" as="geometry">
            <Array as="points">
              <mxPoint x="-733" y="120" />
              <mxPoint x="-687" y="120" />
            </Array>
            <mxPoint x="-730" y="80" as="sourcePoint" />
            <mxPoint x="-686.75" y="320" as="targetPoint" />
          </mxGeometry>
        </mxCell>
        <mxCell id="gDf4PboOrb0UgYzDx0ND-114" value="2" parent="0" />
        <mxCell id="gDf4PboOrb0UgYzDx0ND-115" style="edgeStyle=orthogonalEdgeStyle;rounded=0;orthogonalLoop=1;jettySize=auto;html=1;entryX=0.75;entryY=0;entryDx=0;entryDy=0;strokeWidth=1;exitX=0.52;exitY=1.033;exitDx=0;exitDy=0;exitPerimeter=0;" parent="gDf4PboOrb0UgYzDx0ND-114" source="iLyNXibkhxgOzHxXVg3C-98" target="iLyNXibkhxgOzHxXVg3C-105" edge="1">
          <mxGeometry relative="1" as="geometry">
            <Array as="points">
              <mxPoint x="-604" y="260" />
              <mxPoint x="-490" y="260" />
            </Array>
            <mxPoint x="-600" y="140" as="sourcePoint" />
            <mxPoint x="-490" y="310" as="targetPoint" />
          </mxGeometry>
        </mxCell>
        <mxCell id="gDf4PboOrb0UgYzDx0ND-116" value="" style="edgeStyle=orthogonalEdgeStyle;rounded=0;orthogonalLoop=1;jettySize=auto;html=1;entryX=0.066;entryY=-0.024;entryDx=0;entryDy=0;entryPerimeter=0;strokeWidth=1;" parent="gDf4PboOrb0UgYzDx0ND-114" target="iLyNXibkhxgOzHxXVg3C-130" edge="1">
          <mxGeometry relative="1" as="geometry">
            <Array as="points">
              <mxPoint x="-580" y="470" />
            </Array>
            <mxPoint x="-580" y="410" as="sourcePoint" />
            <mxPoint x="-580" y="610" as="targetPoint" />
          </mxGeometry>
        </mxCell>
        <mxCell id="gDf4PboOrb0UgYzDx0ND-117" style="edgeStyle=orthogonalEdgeStyle;rounded=0;orthogonalLoop=1;jettySize=auto;html=1;entryX=0.25;entryY=0;entryDx=0;entryDy=0;exitX=1;exitY=0.5;exitDx=0;exitDy=0;strokeWidth=1;" parent="gDf4PboOrb0UgYzDx0ND-114" source="iLyNXibkhxgOzHxXVg3C-129" target="iLyNXibkhxgOzHxXVg3C-105" edge="1">
          <mxGeometry relative="1" as="geometry">
            <mxPoint x="-640" y="670" as="sourcePoint" />
            <mxPoint x="-560" y="300" as="targetPoint" />
            <Array as="points">
              <mxPoint x="-620" y="655" />
              <mxPoint x="-620" y="280" />
              <mxPoint x="-563" y="280" />
            </Array>
          </mxGeometry>
        </mxCell>
        <mxCell id="gDf4PboOrb0UgYzDx0ND-118" value="3" parent="0" />
        <mxCell id="gDf4PboOrb0UgYzDx0ND-120" style="edgeStyle=orthogonalEdgeStyle;rounded=0;orthogonalLoop=1;jettySize=auto;html=1;exitX=0.498;exitY=1.02;exitDx=0;exitDy=0;exitPerimeter=0;entryX=0.588;entryY=0;entryDx=0;entryDy=0;entryPerimeter=0;strokeWidth=1;" parent="gDf4PboOrb0UgYzDx0ND-118" source="iLyNXibkhxgOzHxXVg3C-99" target="iLyNXibkhxgOzHxXVg3C-106" edge="1">
          <mxGeometry relative="1" as="geometry">
            <Array as="points">
              <mxPoint x="-484" y="210" />
              <mxPoint x="-300" y="210" />
            </Array>
            <mxPoint x="-483.5" y="130" as="sourcePoint" />
            <mxPoint x="-300" y="310" as="targetPoint" />
          </mxGeometry>
        </mxCell>
        <mxCell id="gDf4PboOrb0UgYzDx0ND-121" style="edgeStyle=orthogonalEdgeStyle;rounded=0;orthogonalLoop=1;jettySize=auto;html=1;entryX=0.75;entryY=0;entryDx=0;entryDy=0;exitX=0.504;exitY=1.042;exitDx=0;exitDy=0;exitPerimeter=0;strokeWidth=1;" parent="gDf4PboOrb0UgYzDx0ND-118" source="iLyNXibkhxgOzHxXVg3C-102" target="iLyNXibkhxgOzHxXVg3C-106" edge="1">
          <mxGeometry relative="1" as="geometry">
            <Array as="points">
              <mxPoint x="-225" y="210" />
              <mxPoint x="-276" y="210" />
            </Array>
            <mxPoint x="-225" y="200" as="sourcePoint" />
            <mxPoint x="-276.25" y="320" as="targetPoint" />
          </mxGeometry>
        </mxCell>
        <mxCell id="gDf4PboOrb0UgYzDx0ND-122" style="edgeStyle=orthogonalEdgeStyle;rounded=0;orthogonalLoop=1;jettySize=auto;html=1;exitX=0.245;exitY=1.019;exitDx=0;exitDy=0;exitPerimeter=0;strokeWidth=1;" parent="gDf4PboOrb0UgYzDx0ND-118" source="iLyNXibkhxgOzHxXVg3C-106" target="iLyNXibkhxgOzHxXVg3C-131" edge="1">
          <mxGeometry relative="1" as="geometry">
            <Array as="points">
              <mxPoint x="-350" y="520" />
              <mxPoint x="-356" y="520" />
            </Array>
            <mxPoint x="-350" y="430" as="sourcePoint" />
            <mxPoint x="-356.5" y="631" as="targetPoint" />
          </mxGeometry>
        </mxCell>
        <mxCell id="gDf4PboOrb0UgYzDx0ND-123" style="edgeStyle=orthogonalEdgeStyle;rounded=0;orthogonalLoop=1;jettySize=auto;html=1;strokeWidth=1;" parent="gDf4PboOrb0UgYzDx0ND-118" edge="1">
          <mxGeometry relative="1" as="geometry">
            <mxPoint x="-350" y="318" as="targetPoint" />
            <Array as="points">
              <mxPoint x="-410" y="655" />
              <mxPoint x="-410" y="260" />
              <mxPoint x="-350" y="260" />
              <mxPoint x="-350" y="318" />
            </Array>
            <mxPoint x="-439.5" y="655" as="sourcePoint" />
          </mxGeometry>
        </mxCell>
        <mxCell id="gDf4PboOrb0UgYzDx0ND-119" value="4" parent="0" />
        <mxCell id="gDf4PboOrb0UgYzDx0ND-124" style="edgeStyle=orthogonalEdgeStyle;rounded=0;orthogonalLoop=1;jettySize=auto;html=1;exitX=0.332;exitY=1.02;exitDx=0;exitDy=0;exitPerimeter=0;entryX=0.25;entryY=0;entryDx=0;entryDy=0;strokeWidth=1;" parent="gDf4PboOrb0UgYzDx0ND-119" source="iLyNXibkhxgOzHxXVg3C-97" target="iLyNXibkhxgOzHxXVg3C-107" edge="1">
          <mxGeometry relative="1" as="geometry">
            <Array as="points">
              <mxPoint x="-172" y="61" />
              <mxPoint x="-172" y="210" />
              <mxPoint x="-120" y="210" />
            </Array>
            <mxPoint x="-170" y="80" as="sourcePoint" />
            <mxPoint x="-120" y="300" as="targetPoint" />
          </mxGeometry>
        </mxCell>
        <mxCell id="gDf4PboOrb0UgYzDx0ND-125" style="edgeStyle=orthogonalEdgeStyle;rounded=0;orthogonalLoop=1;jettySize=auto;html=1;exitX=0.203;exitY=1.033;exitDx=0;exitDy=0;exitPerimeter=0;entryX=0.347;entryY=0;entryDx=0;entryDy=0;entryPerimeter=0;strokeWidth=1;" parent="gDf4PboOrb0UgYzDx0ND-119" source="iLyNXibkhxgOzHxXVg3C-103" target="iLyNXibkhxgOzHxXVg3C-107" edge="1">
          <mxGeometry relative="1" as="geometry">
            <Array as="points">
              <mxPoint x="-47" y="210" />
              <mxPoint x="-106" y="210" />
            </Array>
            <mxPoint x="-30" y="220" as="sourcePoint" />
            <mxPoint x="-106" y="310" as="targetPoint" />
          </mxGeometry>
        </mxCell>
        <mxCell id="gDf4PboOrb0UgYzDx0ND-126" style="edgeStyle=orthogonalEdgeStyle;rounded=0;orthogonalLoop=1;jettySize=auto;html=1;exitX=0.385;exitY=1.022;exitDx=0;exitDy=0;exitPerimeter=0;entryX=0;entryY=0.5;entryDx=0;entryDy=0;strokeWidth=1;" parent="gDf4PboOrb0UgYzDx0ND-119" source="iLyNXibkhxgOzHxXVg3C-107" target="iLyNXibkhxgOzHxXVg3C-133" edge="1">
          <mxGeometry relative="1" as="geometry">
            <mxPoint x="-140" y="670" as="targetPoint" />
            <Array as="points">
              <mxPoint x="-100" y="450" />
              <mxPoint x="-150" y="450" />
              <mxPoint x="-150" y="655" />
            </Array>
            <mxPoint x="-100" y="420" as="sourcePoint" />
          </mxGeometry>
        </mxCell>
        <mxCell id="gDf4PboOrb0UgYzDx0ND-127" style="edgeStyle=orthogonalEdgeStyle;rounded=0;orthogonalLoop=1;jettySize=auto;html=1;entryX=0;entryY=0.5;entryDx=0;entryDy=0;exitX=0.12;exitY=1.019;exitDx=0;exitDy=0;exitPerimeter=0;strokeWidth=1;" parent="gDf4PboOrb0UgYzDx0ND-119" source="iLyNXibkhxgOzHxXVg3C-107" target="iLyNXibkhxgOzHxXVg3C-132" edge="1">
          <mxGeometry relative="1" as="geometry">
            <mxPoint x="-131.68999999999983" y="755.5500000000002" as="targetPoint" />
            <Array as="points">
              <mxPoint x="-139" y="440" />
              <mxPoint x="-160" y="440" />
              <mxPoint x="-160" y="755" />
            </Array>
            <mxPoint x="-140" y="420" as="sourcePoint" />
          </mxGeometry>
        </mxCell>
        <mxCell id="gDf4PboOrb0UgYzDx0ND-128" style="edgeStyle=orthogonalEdgeStyle;rounded=0;orthogonalLoop=1;jettySize=auto;html=1;entryX=0;entryY=0.5;entryDx=0;entryDy=0;strokeWidth=1;" parent="gDf4PboOrb0UgYzDx0ND-119" target="iLyNXibkhxgOzHxXVg3C-107" edge="1">
          <mxGeometry relative="1" as="geometry">
            <Array as="points">
              <mxPoint x="-200" y="655" />
              <mxPoint x="-200" y="365" />
            </Array>
            <mxPoint x="-239.49999999999977" y="655" as="sourcePoint" />
            <mxPoint x="-170" y="365" as="targetPoint" />
          </mxGeometry>
        </mxCell>
      </root>
    </mxGraphModel>
  </diagram>
</mxfile>
